<?xml version="1.0" standalone="no"?><!DOCTYPE svg PUBLIC "-//W3C//DTD SVG 1.1//EN" "http://www.w3.org/Graphics/SVG/1.1/DTD/svg11.dtd"><svg t="1496245127434" class="icon" style="" viewBox="0 0 1024 1024" version="1.1" xmlns="http://www.w3.org/2000/svg" p-id="6339" xmlns:xlink="http://www.w3.org/1999/xlink" width="200" height="200"><defs><style type="text/css"></style></defs><path d="M511.340479 67.87897C756.175697 67.87897 954.654121 266.357394 954.654121 511.191588c0 244.834194-198.478424 443.313641-443.313641 443.313641-244.833171 0-443.312618-198.479447-443.312618-443.313641C68.027861 266.357394 266.507308 67.87897 511.340479 67.87897L511.340479 67.87897zM499.938801 446.273043l-14.655791 14.381545c-9.175987 8.998955-9.31618 23.736611-0.315178 32.906457l35.851533 36.540218c9.001001 9.172917 23.731494 9.312086 32.906457 0.312108l97.653087-95.815229c9.17394-8.999978 9.31311-23.731494 0.314155-32.906457l-35.852556-36.538171c-9.001001-9.172917-23.732517-9.314133-32.908504-0.313132l-14.653745 14.383592-81.025385-82.578764 14.655791-14.384615c9.174963-8.998955 9.314133-23.732517 0.315178-32.906457l-35.851533-36.537148c-9.001001-9.17394-23.733541-9.314133-32.908504-0.314155l-97.651041 95.814206c-9.172917 8.999978-9.314133 23.735587-0.313132 32.907481l35.851533 36.541241c9.001001 9.17087 23.732517 9.311063 32.907481 0.310062l14.657838-14.383592 4.840238 4.933359L236.348428 552.332591c0 0-32.69975 43.252083-6.694469 69.563332 38.995129 38.995129 80.595596 4.436032 80.595596 4.436032L495.166101 441.406199 499.938801 446.273043 499.938801 446.273043zM763.201717 724.228589l-50.451042 0 0-37.615713c0-5.846148-10.419304-10.586103-23.269983-10.586103l-11.632945 0 0-22.272259c0-12.850679-10.41828-23.267936-23.26896-23.267936L457.791889 630.486578c-12.851703 0-23.269983 10.41828-23.269983 23.267936l0 22.272259-8.641821 0c-12.850679 0-23.269983 4.739954-23.269983 10.586103l0 37.615713-58.201563 0c-10.816347 0-19.583011 8.766664-19.583011 19.583011 0 10.81737 8.770757 19.584034 19.583011 19.584034l418.793178 0c10.818393 0 19.583011-8.765641 19.583011-19.584034C782.784728 732.995253 774.021134 724.228589 763.201717 724.228589z" p-id="6340" fill="#8a8a8a"></path></svg>