<?xml version="1.0" standalone="no"?><!DOCTYPE svg PUBLIC "-//W3C//DTD SVG 1.1//EN" "http://www.w3.org/Graphics/SVG/1.1/DTD/svg11.dtd"><svg t="1495822297962" class="icon" style="" viewBox="0 0 1026 1024" version="1.1" xmlns="http://www.w3.org/2000/svg" p-id="8847" xmlns:xlink="http://www.w3.org/1999/xlink" width="200.390625" height="200"><defs><style type="text/css"></style></defs><path d="M349.264 178.718l224.252 123.695c6.198 3.396 14.112 1.346 17.69-4.554l6.44-10.686c3.603-5.895 1.48-13.488-4.688-16.908L368.69 146.595c-6.192-3.42-14.156-1.376-17.68 4.5l-6.5 10.715c-3.566 5.92-1.472 13.488 4.75 16.908h0.004zM155.056 500.065L379.31 623.782c6.198 3.343 14.113 1.328 17.685-4.548l6.47-10.685c3.597-5.87 1.45-13.518-4.723-16.939L174.463 467.97c-6.193-3.426-14.113-1.346-17.664 4.52l-6.466 10.69c-3.622 5.866-1.497 13.44 4.723 16.885z m790.792 151.093L497.03 428.975l60.3-99.806c3.602-5.9 1.45-13.493-4.7-16.918l-201.82-111.3c-6.197-3.4-14.162-1.352-17.713 4.548L190.65 441.111c-3.499 5.9-1.4 13.518 4.744 16.919l201.879 111.298c6.144 3.422 14.112 1.351 17.63-4.518l60.398-99.837L901.13 725.17c5.996 3.672 13.843 1.82 17.386-4.05l32.373-53.575c3.523-5.847 1.254-13.24-5.04-16.387z m70.84 31.276L994.2 670.092c-6.12-3.4-14.137-1.346-17.68 4.547l-38.872 64.244c-3.542 5.869-1.366 13.488 4.754 16.884l22.427 12.341c6.168 3.444 14.136 1.371 17.71-4.524l38.838-64.242c3.547-5.9 1.448-13.513-4.69-16.908z m-484.582 76.305h-27.029c3.39-3.645-8.271-0.269-8.271-5.52v-64.17H66.229v64.17c0 5.241-22.98 1.87-19.544 5.52H19.66C7.857 758.739 0 774.1 0 785.29v64.17c0 11.164 7.881 31.65 19.66 31.65H532.1c11.79 0 30.924-20.486 30.924-31.65v-64.17c0-11.16-19.128-26.551-30.918-26.551z m-35.3 90.726H66.229c-12.35 0-33.12-20.286-33.12-32.076 0.039-11.79 20.773-32.123 33.12-32.099h430.577c12.388 0 33.149 20.334 33.1 32.1 0 11.819-20.71 32.075-33.1 32.075z m0 0" fill="#bfbfbf" p-id="8848"></path></svg>