<?xml version="1.0" encoding="UTF-8" standalone="no"?>
<!-- Created with Inkscape (http://www.inkscape.org/) -->

<svg
   xmlns:dc="http://purl.org/dc/elements/1.1/"
   xmlns:cc="http://creativecommons.org/ns#"
   xmlns:rdf="http://www.w3.org/1999/02/22-rdf-syntax-ns#"
   xmlns:svg="http://www.w3.org/2000/svg"
   xmlns="http://www.w3.org/2000/svg"
   xmlns:sodipodi="http://sodipodi.sourceforge.net/DTD/sodipodi-0.dtd"
   xmlns:inkscape="http://www.inkscape.org/namespaces/inkscape"
   width="56.675976mm"
   height="40.861717mm"
   viewBox="0 0 200.82039 144.78561"
   id="svg2"
   version="1.1"
   inkscape:version="0.91 r13725"
   sodipodi:docname="industry_regulations.svg">
  <defs
     id="defs4">
    <style
       id="style3340"
       type="text/css" />
  </defs>
  <sodipodi:namedview
     id="base"
     pagecolor="#ffffff"
     bordercolor="#666666"
     borderopacity="1.0"
     inkscape:pageopacity="0.0"
     inkscape:pageshadow="2"
     inkscape:zoom="0.7"
     inkscape:cx="-94.297841"
     inkscape:cy="124.37904"
     inkscape:document-units="px"
     inkscape:current-layer="layer1"
     showgrid="false"
     inkscape:window-width="1920"
     inkscape:window-height="1009"
     inkscape:window-x="1920"
     inkscape:window-y="24"
     inkscape:window-maximized="1"
     fit-margin-top="0"
     fit-margin-left="0"
     fit-margin-right="0"
     fit-margin-bottom="0" />
  <metadata
     id="metadata7">
    <rdf:RDF>
      <cc:Work
         rdf:about="">
        <dc:format>image/svg+xml</dc:format>
        <dc:type
           rdf:resource="http://purl.org/dc/dcmitype/StillImage" />
        <dc:title></dc:title>
      </cc:Work>
    </rdf:RDF>
  </metadata>
  <g
     inkscape:label="Layer 1"
     inkscape:groupmode="layer"
     id="layer1"
     transform="translate(-148.15915,-482.82576)">
    <path
       id="path3342"
       p-id="8848"
       d="m 216.87478,489.92544 43.79921,24.15918 c 1.21055,0.66328 2.75625,0.26289 3.45508,-0.88946 l 1.25781,-2.08711 c 0.70372,-1.15136 0.28907,-2.63437 -0.91562,-3.30234 l -43.80234,-24.1543 c -1.20938,-0.66797 -2.76485,-0.26875 -3.45313,0.87891 l -1.26953,2.09277 c -0.69648,1.15625 -0.2875,2.63438 0.92774,3.30235 l 7.8e-4,0 z m -37.93125,62.76308 43.79961,24.16348 c 1.21054,0.65293 2.75644,0.25938 3.4541,-0.88828 l 1.26367,-2.08691 c 0.70254,-1.14649 0.2832,-2.64024 -0.92246,-3.3084 l -43.80449,-24.14844 c -1.20957,-0.66914 -2.75645,-0.26289 -3.45,0.88281 l -1.26289,2.08789 c -0.70743,1.1457 -0.29239,2.625 0.92246,3.29785 z m 154.45156,29.51036 -87.65977,-43.39512 11.77735,-19.49336 c 0.70351,-1.15235 0.2832,-2.63535 -0.91797,-3.3043 l -39.41797,-21.73828 c -1.21035,-0.66406 -2.76602,-0.26406 -3.45957,0.88828 l -27.82168,46.01797 c -0.6834,1.15234 -0.27344,2.64023 0.92656,3.30449 l 39.42949,21.73789 c 1.2,0.66836 2.75625,0.26387 3.44336,-0.88242 l 11.79649,-19.49941 83.16972,50.81973 c 1.1711,0.71718 2.70371,0.35546 3.39571,-0.79102 l 6.32285,-10.46387 c 0.68808,-1.14199 0.24492,-2.58593 -0.98438,-3.20058 z m 13.83594,6.10859 -4.39219,-2.41055 c -1.19532,-0.66406 -2.76114,-0.26289 -3.45313,0.88809 l -7.59218,12.54766 c -0.6918,1.14629 -0.2668,2.63437 0.92851,3.29765 l 4.38027,2.41035 c 1.20469,0.67266 2.76094,0.26778 3.45899,-0.88359 l 7.58555,-12.54727 c 0.69277,-1.15234 0.28281,-2.63925 -0.91602,-3.30234 z m -94.64493,14.90332 -5.2791,0 c 0.66211,-0.71191 -1.61543,-0.0525 -1.61543,-1.07812 l 0,-12.53321 -84.09707,0 0,12.53321 c 0,1.02363 -4.48828,0.36523 -3.81718,1.07812 l -5.27832,0 c -2.30528,0 -3.83985,3.0002 -3.83985,5.18574 l 0,12.53321 c 0,2.18046 1.53926,6.18164 3.83985,6.18164 l 100.08593,0 c 2.30274,0 6.03985,-4.00118 6.03985,-6.18164 l 0,-12.53321 c 0,-2.17968 -3.73594,-5.18574 -6.03868,-5.18574 z m -6.89453,17.71992 -84.09707,0 c -2.41211,0 -6.46875,-3.96211 -6.46875,-6.26484 0.008,-2.30274 4.05723,-6.27402 6.46875,-6.26934 l 84.09707,0 c 2.41953,0 6.47442,3.97149 6.46485,6.26953 0,2.3084 -4.04492,6.26465 -6.46485,6.26465 z m 0,0"
       inkscape:connector-curvature="0"
       style="opacity:1;fill:#03a9fa;fill-opacity:1;fill-rule:nonzero;stroke:#0288d1;stroke-opacity:1" />
  </g>
</svg>
