<?xml version="1.0" standalone="no"?><!DOCTYPE svg PUBLIC "-//W3C//DTD SVG 1.1//EN" "http://www.w3.org/Graphics/SVG/1.1/DTD/svg11.dtd"><svg t="1496252639999" class="icon" style="" viewBox="0 0 1024 1024" version="1.1" xmlns="http://www.w3.org/2000/svg" p-id="9563" xmlns:xlink="http://www.w3.org/1999/xlink" width="200" height="200"><defs><style type="text/css"></style></defs><path d="M956.564633 432.53925l-0.071631-0.115634-0.070608-0.116657-0.412392-0.681522-0.376577-0.654916-0.020466-0.026606-0.393973-0.683569-0.376577-0.627287-0.035816-0.049119-0.413416-0.681522-0.357134-0.601704-0.035816-0.080841-0.413416-0.678452-0.339738-0.574075-0.072655-0.103354-0.393973-0.681522-0.342808-0.547469-0.070608-0.12996-0.412392-0.678452-0.305969-0.524956-0.106424-0.151449-0.413416-0.678452-0.286526-0.49221-0.106424-0.185218-0.412392-0.676405-0.288572-0.466628-0.124843-0.206708-0.412392-0.678452-0.270153-0.440022-0.143263-0.23843-0.413416-0.673335-0.249687-0.408299-0.180102-0.265036-0.413416-0.677429-0.233314-0.376577-0.180102-0.296759-0.412392-0.673335-0.213871-0.349971-0.199545-0.323365-0.429789-0.673335-0.196475-0.318248-0.216941-0.349971-0.412392-0.673335-0.196475-0.296759-0.233314-0.376577-0.413416-0.668219-0.159636-0.265036-0.270153-0.405229-0.413416-0.673335-0.143263-0.228197-0.286526-0.440022-0.429789-0.668219-0.12689-0.206708-0.286526-0.461511-0.432859-0.664126-0.106424-0.174985-0.322341-0.49835-0.412392-0.663102-1.724271-2.665713-0.053212-0.081864c-12.006452-18.625196-24.803919-36.637432-38.536688-53.876048-1.272993-1.607614-2.549056-3.203972-3.839445-4.797259l-2.352581-2.912329-0.036839 0c-18.575054-22.543436-38.856983-43.726897-61.274552-63.202461-2.835581-2.867304-6.768147-4.643764-11.130502-4.643764L666.952606 275.15885c-11.307533 0-21.6286 4.630461-29.166273 12.101619l-0.072655 0.071631-0.033769 0.026606-0.020466 0.031722c-7.521301 7.543813-12.186554 17.890462-12.186554 29.248138l0 228.420363c0 2.352581-0.933255 4.483104-2.439562 6.028297l-0.072655 0.058328c-1.543146 1.511423-3.662413 2.448772-6.011924 2.448772L100.561835 553.594327c-10.340509 0-19.744693 4.237511-26.566052 11.05887l-0.053212 0.058328c-6.821359 6.825452-11.056823 16.228613-11.056823 26.559912l0 36.58729c0 10.339486 4.235464 19.744693 11.056823 26.566052l0.053212 0.062422c6.821359 6.811126 16.225543 11.048637 26.566052 11.048637l102.091166 0c-5.366218 12.294001-8.364505 25.862018-8.364505 40.114626 0 27.677363 11.236925 52.734038 29.365818 70.861908 18.128893 18.136056 43.183522 29.363771 70.861908 29.363771 27.656897 0 52.714596-11.228739 70.842465-29.363771 18.145266-18.127869 29.365818-43.184545 29.365818-70.861908 0-14.252609-2.978844-27.821649-8.364505-40.114626l297.15891 0c-5.365194 12.294001-8.362458 25.862018-8.362458 40.114626 0 27.677363 11.234879 52.734038 29.362748 70.861908 18.128893 18.136056 43.185568 29.363771 70.862931 29.363771 27.669176 0 52.722782-11.228739 70.851675-29.363771 18.147312-18.127869 29.364795-43.184545 29.364795-70.861908 0-14.252609-2.978844-27.821649-8.364505-40.114626l49.897434 0c10.894118 0 20.822235-4.254907 28.233018-11.18269 0.376577-0.305969 0.73678-0.639566 1.077541-0.989537 7.521301-7.511067 12.170181-17.884322 12.170181-29.308513L958.612269 436.035888 956.564633 432.53925zM343.263459 754.415099c-12.473079 12.477172-29.721929 20.193925-48.748261 20.193925-19.044752 0-36.293601-7.716752-48.767703-20.193925-12.473079-12.473079-20.191878-29.721929-20.191878-48.764634 0-19.025309 7.717775-36.275181 20.191878-48.751331 12.474103-12.473079 29.722952-20.198018 48.767703-20.198018 19.025309 0 36.274158 7.724938 48.748261 20.198018 12.474103 12.475126 20.191878 29.726022 20.191878 48.751331C363.455337 724.69317 355.737562 741.940996 343.263459 754.415099zM824.138578 754.415099c-12.473079 12.477172-29.722952 20.193925-48.756447 20.193925-19.044752 0-36.274158-7.716752-48.767703-20.193925-12.473079-12.473079-20.190855-29.721929-20.190855-48.764634 0-19.025309 7.717775-36.275181 20.190855-48.751331 12.493545-12.473079 29.722952-20.198018 48.767703-20.198018 19.034519 0 36.283368 7.724938 48.756447 20.198018 12.473079 12.475126 20.191878 29.726022 20.191878 48.751331C844.331479 724.69317 836.612681 741.940996 824.138578 754.415099zM927.362544 624.055099c0 2.797719-1.166569 5.348821-3.015683 7.215332l-0.466628 0.484024c-1.812275 1.570775-4.164856 2.532683-6.748704 2.532683l-71.418586 0c-18.092054-17.83418-42.931788-28.844955-70.330812-28.844955-27.40721 0-52.230572 11.010775-70.342068 28.844955L364.838847 634.287137c-18.092054-17.83418-42.932812-28.844955-70.322625-28.844955-27.409257 0-52.250014 11.010775-70.342068 28.844955L100.561835 634.287137c-1.760087 0-3.358491-0.711198-4.52506-1.851161l-0.053212-0.044002c-1.12973-1.159406-1.849114-2.76395-1.849114-4.533246l0-36.58729c0-1.759063 0.719384-3.365654 1.849114-4.523013l0.053212-0.054235c1.149173-1.130753 2.764973-1.840928 4.52506-1.840928l516.38589 0c10.930957 0 20.85498-4.468778 28.052916-11.665691l0.072655-0.054235c7.194866-7.211239 11.663644-17.144472 11.663644-28.073382L656.73694 316.640614c0-2.835581 1.131777-5.384637 2.946099-7.206122l0.069585-0.058328c1.812275-1.821485 4.362354-2.957355 7.197936-2.957355l149.397588 0c13.030781 11.555174 25.324782 23.777543 36.954657 36.588313l-92.2838 0c-12.258185 0-23.404036 5.02034-31.482015 13.103436l-0.070608 0.062422c-8.077979 8.086166-13.103436 19.237133-13.103436 31.492248l0 60.69843c0 12.258185 5.025457 23.409153 13.103436 31.494295l0.070608 0.059352c8.077979 8.085142 19.22383 13.106506 31.482015 13.106506l166.341492 0L927.360498 624.055099zM927.362544 461.765899 761.021052 461.765899c-3.695159 0-7.054673-1.508353-9.477862-3.917216-2.403746-2.432399-3.9121-5.78782-3.9121-9.486048l0-60.69843c0-3.675716 1.489934-7.02295 3.87833-9.450233 2.440585-2.431376 5.816472-3.947915 9.511631-3.947915l118.597095 0c12.385075 15.85306 23.981181 32.396851 34.94693 49.506531l0.12382 0.189312 1.366114 2.14485 0.144286 0.2415 1.345648 2.104941 0.180102 0.291642 0.177032 0.296759 0.576121 0.901533 0.159636 0.275269 1.850138 2.947122 0.233314 0.390903 0.73678 1.206478 0.125867 0.174985 0.358157 0.597611 0.270153 0.435928 0.090051 0.156566 0.64673 1.054005 0.090051 0.135076 0.35918 0.591471 0.680499 1.130753 0.036839 0.058328 0.322341 0.511653 0.036839 0.084934 0.376577 0.596588 0.322341 0.530073 0.036839 0.068562 0.357134 0.596588 0.322341 0.555655 0.036839 0.040932 0.360204 0.600681 0.339738 0.574075 0.020466 0.022513 0.357134 0.601704 0.360204 0.596588L927.364591 461.765899z" p-id="9564" fill="#bfbfbf"></path><path d="M588.73108 216.684064c-11.235902-11.241019-26.761504-18.218944-43.831274-18.218944L124.935965 198.465121c-17.034978 0-32.54216 6.977925-43.779086 18.213827l-0.053212 0.063445C69.866742 227.978295 62.885747 243.47729 62.885747 260.519432L62.885747 481.253742c0 17.077957 6.980995 32.596396 18.21792 43.831274 11.236925 11.235902 26.762527 18.216897 43.832298 18.216897l419.963841 0c17.033955 0 32.523741-6.980995 43.759643-18.222013l0.071631 0c11.236925-11.234879 18.218944-26.756387 18.218944-43.826158L606.950024 260.519432C606.950024 243.445568 599.969029 227.919966 588.73108 216.684064zM575.68188 481.253742c0 8.445346-3.462868 16.139585-9.064446 21.726837l0.036839 0.025583c-5.582135 5.573949-13.281491 9.032724-21.754466 9.032724L124.935965 512.038886c-8.454556 0-16.155958-3.473101-21.738094-9.05933-5.582135-5.582135-9.063423-13.281491-9.063423-21.726837L94.134449 260.519432c0-8.476045 3.464915-16.185634 9.029654-21.767769 5.582135-5.567809 13.299911-9.023514 21.771863-9.023514l419.963841 0c8.43716 0 16.136515 3.469008 21.73707 9.05626 5.582135 5.585205 9.045003 13.286608 9.045003 21.736047L575.68188 481.253742z" p-id="9565" fill="#bfbfbf"></path></svg>