<?xml version="1.0" standalone="no"?><!DOCTYPE svg PUBLIC "-//W3C//DTD SVG 1.1//EN" "http://www.w3.org/Graphics/SVG/1.1/DTD/svg11.dtd"><svg t="1496252586722" class="icon" style="" viewBox="0 0 1024 1024" version="1.1" xmlns="http://www.w3.org/2000/svg" p-id="8451" xmlns:xlink="http://www.w3.org/1999/xlink" width="200" height="200"><defs><style type="text/css"></style></defs><path d="M172.503 946.611v-51.087H362.78v-79.106c0-8.84 7.193-16.033 16.03-16.033h266.38c8.846 0 16.039 7.193 16.039 16.033v79.106H851.48v51.087H172.503z m-41.048-228.313c-29.825 0-54.085-24.259-54.085-54.085V131.457c0-29.815 24.264-54.07 54.085-54.07h761.094c29.82 0 54.08 24.254 54.08 54.07v532.756c0 29.825-24.26 54.085-54.08 54.085H131.455z m19.03-589.854c-12.14 0-22.012 9.88-22.012 22.019v494.689c0 12.14 9.873 22.012 22.012 22.012H873.52c12.14 0 22.017-9.873 22.017-22.012V150.464c0-12.14-9.878-22.019-22.017-22.019H150.485z m0 0" fill="#bfbfbf" p-id="8452"></path><path d="M513.294 505.826c-51.49 0-97.627-31.92-127.26-58.7-28.012-25.307-47.074-51.087-51.618-57.454 3.628-6.513 18.376-31.534 44.133-57.053 26.943-26.692 71.332-58.508 129.795-58.508 58.507 0 104.9 31.574 133.523 58.06 26.784 24.788 43.557 50.086 47.673 56.593-4.495 6.54-22.985 32.466-50.313 57.873-29.04 27.001-74.467 59.19-125.933 59.19z m-1.289-205.691c-49.536 0-89.839 40.303-89.839 89.839s40.303 89.834 89.84 89.834c49.53 0 89.828-40.298 89.828-89.834s-40.298-89.84-89.829-89.84z m0.262 141.512c-6.77 0-13.661-1.37-19.922-3.96a52.541 52.541 0 0 1-16.885-11.282 52.425 52.425 0 0 1-11.283-16.891c-2.191-5.289-3.53-11.132-3.874-16.905l-0.302-5.012a52.582 52.582 0 0 1 3.909-17.545c2.599-6.262 6.498-12.105 11.288-16.885a52.41 52.41 0 0 1 16.885-11.29 52.514 52.514 0 0 1 19.922-3.959c6.775 0 13.661 1.37 19.917 3.96a52.514 52.514 0 0 1 16.885 11.289 52.375 52.375 0 0 1 11.283 16.885c2.191 5.289 3.53 11.133 3.875 16.905l0.296 4.987a52.517 52.517 0 0 1-3.909 17.565c-2.584 6.256-6.488 12.094-11.283 16.896a52.518 52.518 0 0 1-16.885 11.283 52.605 52.605 0 0 1-19.917 3.959z m0 0" fill="#bfbfbf" p-id="8453"></path></svg>