<?xml version="1.0" standalone="no"?><!DOCTYPE svg PUBLIC "-//W3C//DTD SVG 1.1//EN" "http://www.w3.org/Graphics/SVG/1.1/DTD/svg11.dtd"><svg t="1496252348461" class="icon" style="" viewBox="0 0 1024 1024" version="1.1" xmlns="http://www.w3.org/2000/svg" p-id="6797" xmlns:xlink="http://www.w3.org/1999/xlink" width="200" height="200"><defs><style type="text/css"></style></defs><path d="M436.098821 505.591033l-27.461445 0 0 23.706935 27.461445 0L436.098821 505.591033zM681.311639 475.812823l-59.868529 0 0 57.653071 26.402323 0L681.311639 475.812823zM715.892225 475.812823 695.544805 475.812823l-33.465183 57.653071 18.848277 0L715.892225 475.812823zM295.330774 529.297968l100.818173 0 0-23.706935-100.818173 0L295.330774 529.297968zM388.517129 451.516464l-93.185332 0 0 23.705911 93.185332 0L388.517129 451.516464zM511.999488 112.663966c-220.547045 0-399.336034 178.788989-399.336034 399.336034S291.45142 911.336034 511.999488 911.336034s399.336034-178.788989 399.336034-399.336034S732.546533 112.663966 511.999488 112.663966zM248.238222 348.357989c0-6.895037 6.715959-12.473079 15.022135-12.473079l343.16164 0c8.30413 0 15.022135 5.578042 15.022135 12.473079l0 27.446096L248.238222 375.804085 248.238222 348.357989zM775.760754 665.993257c0 12.198833-10.525728 22.121833-23.463388 22.121833L419.626661 688.11509c-12.942777 0-23.476691-9.923-23.476691-22.121833l0-97.182366L263.260357 568.81089c-8.305153 0-15.022135-5.577019-15.022135-12.473079L248.238222 412.836513l373.204887 0 0 15.180747L752.297366 428.01726c12.93766 0 23.463388 9.925047 23.463388 22.119787L775.760754 665.993257zM621.44311 556.337811c0 6.89606-6.716982 12.473079-15.022135 12.473079L408.637376 568.81089l0 97.182366c0 5.709025 4.927219 10.355859 10.989285 10.355859L752.297366 676.349115c6.052856 0 10.975982-4.646833 10.975982-10.355859L763.273349 545.232892l-141.830239 0L621.44311 556.337811zM489.747695 626.213251l-67.532069 0c-3.448542 0-6.243191-2.632967-6.243191-5.881964 0-3.251044 2.793626-5.886057 6.243191-5.886057l67.532069 0c3.446495 0 6.243191 2.635013 6.243191 5.886057C495.989863 623.580285 493.19419 626.213251 489.747695 626.213251zM545.011346 597.290525 422.215626 597.290525c-3.448542 0-6.243191-2.631944-6.243191-5.879917 0-3.248997 2.793626-5.881964 6.243191-5.881964l122.795721 0c3.445472 0 6.242168 2.632967 6.242168 5.881964C551.252491 594.657558 548.456818 597.290525 545.011346 597.290525zM752.297366 439.784258 621.44311 439.784258l0 24.263613 141.830239 0 0-13.910824C763.273349 444.430068 758.350223 439.784258 752.297366 439.784258zM695.311491 533.465894l67.961858 0 0-57.653071-33.000602 0L695.311491 533.465894z" p-id="6798" fill="#bfbfbf"></path></svg>