<?xml version="1.0" standalone="no"?><!DOCTYPE svg PUBLIC "-//W3C//DTD SVG 1.1//EN" "http://www.w3.org/Graphics/SVG/1.1/DTD/svg11.dtd"><svg t="1496252413776" class="icon" style="" viewBox="0 0 1024 1024" version="1.1" xmlns="http://www.w3.org/2000/svg" p-id="7618" xmlns:xlink="http://www.w3.org/1999/xlink" width="200" height="200"><defs><style type="text/css"></style></defs><path d="M676.032 784.448c0 16.576-17.28 30.08-38.592 30.08L212.48 814.528c-21.376 0-38.656-13.504-38.656-30.08l0 0c0-16.64 17.28-30.144 38.656-30.144l425.024 0C658.816 754.304 676.032 767.808 676.032 784.448L676.032 784.448z" p-id="7619" fill="#bfbfbf"></path><path d="M705.088 674.112c0 16.576-20.224 30.144-45.312 30.144l-498.56 0c-25.024 0-45.312-13.568-45.312-30.144l0 0c0-16.704 20.288-30.144 45.312-30.144l498.56 0C684.8 644.032 705.088 657.408 705.088 674.112L705.088 674.112z" p-id="7620" fill="#bfbfbf"></path><path d="M730.816 563.776c0 16.512-23.04 30.144-51.776 30.144L109.696 593.92c-28.608 0-51.776-13.632-51.776-30.144l0 0c0-16.576 23.168-30.144 51.776-30.144l569.344 0C707.776 533.632 730.816 547.2 730.816 563.776L730.816 563.776z" p-id="7621" fill="#bfbfbf"></path><path d="M746.944 453.312c0 16.64-25.664 30.144-57.408 30.144L57.472 483.456C25.664 483.456 0 469.952 0 453.312l0 0c0-16.576 25.664-30.016 57.472-30.016l632 0C721.28 423.36 746.944 436.8 746.944 453.312L746.944 453.312z" p-id="7622" fill="#bfbfbf"></path><path d="M995.712 123.904l-144.896 0c-0.32 0-0.512 0-0.704 0-14.528-0.384-29.184 10.048-35.328 26.432l-72.384 195.136c-7.424 20.032 0.704 41.408 17.792 47.936l8.832 3.2c17.344 6.464 37.44-4.608 44.736-24.64l71.232-191.808 110.656 0c15.552 0 28.096-12.672 28.096-28.096C1023.808 136.512 1011.264 123.904 995.712 123.904z" p-id="7623" fill="#bfbfbf"></path><path d="M995.712 123.904l-144.896 0c-0.32 0-0.512 0-0.704 0-14.528-0.384-29.184 10.048-35.328 26.432l-72.384 195.136c-7.424 20.032 0.704 41.408 17.792 47.936l8.832 3.2c17.344 6.464 37.44-4.608 44.736-24.64l71.232-191.808 110.656 0c15.552 0 28.096-12.672 28.096-28.096C1023.808 136.512 1011.264 123.904 995.712 123.904z" p-id="7624" fill="#bfbfbf"></path><path d="M301.568 906.24m-53.696 0a0.839 0.839 0 1 0 107.392 0 0.839 0.839 0 1 0-107.392 0Z" p-id="7625" fill="#bfbfbf"></path><path d="M569.856 906.24m-53.696 0a0.839 0.839 0 1 0 107.392 0 0.839 0.839 0 1 0-107.392 0Z" p-id="7626" fill="#bfbfbf"></path></svg>