<?xml version="1.0" standalone="no"?><!DOCTYPE svg PUBLIC "-//W3C//DTD SVG 1.1//EN" "http://www.w3.org/Graphics/SVG/1.1/DTD/svg11.dtd"><svg t="1495821864403" class="icon" style="" viewBox="0 0 1024 1024" version="1.1" xmlns="http://www.w3.org/2000/svg" p-id="1830" xmlns:xlink="http://www.w3.org/1999/xlink" width="200" height="200"><defs><style type="text/css"></style></defs><path d="M901.3248 309.248 459.8528 309.248c-39.4752 0-71.5776 32.1024-71.5776 71.5776l0 279.3728c0 39.4752 32.1024 71.5776 71.5776 71.5776l187.8528 0 233.5232 238.464 0-238.464 20.0704 0c39.4752 0 71.5776-32.1024 71.5776-71.5776L972.8768 380.8256C972.8768 341.3504 940.8 309.248 901.3248 309.248zM593.6384 531.0976c-15.872 0-28.7488-12.8768-28.7488-28.7488 0-15.872 12.8768-28.7488 28.7488-28.7488 15.872 0 28.7488 12.8768 28.7488 28.7488C622.3872 518.2208 609.5104 531.0976 593.6384 531.0976zM768.4352 531.0976c-15.872 0-28.7488-12.8768-28.7488-28.7488 0-15.872 12.8768-28.7488 28.7488-28.7488s28.7488 12.8768 28.7488 28.7488C797.2096 518.2208 784.3328 531.0976 768.4352 531.0976z" p-id="1831" fill="#8a8a8a"></path><path d="M364.928 502.5024l0-140.9024c0-39.4752 32.1024-71.5776 71.5776-71.5776l303.9488 0L740.4544 124.3648c0-39.4752-32.1024-71.5776-71.5776-71.5776L124.3136 52.7872c-39.4752 0-71.5776 32.1024-71.5776 71.5776l0 305.5616c0 39.4752 32.1024 71.5776 71.5776 71.5776l37.5552 0 0 207.8208L364.928 502.5024z" p-id="1832" fill="#8a8a8a"></path></svg>