<?xml version="1.0" standalone="no"?><!DOCTYPE svg PUBLIC "-//W3C//DTD SVG 1.1//EN" "http://www.w3.org/Graphics/SVG/1.1/DTD/svg11.dtd"><svg t="1496252074659" class="icon" style="" viewBox="0 0 1024 1024" version="1.1" xmlns="http://www.w3.org/2000/svg" p-id="3077" xmlns:xlink="http://www.w3.org/1999/xlink" width="200" height="200"><defs><style type="text/css"></style></defs><path d="M885.812341 561.338986c0.21092-8.468556 0.23447-17.086598 0.058361-25.721023 2.304766-116.829411-32.463308-215.311821-100.562944-284.823396-32.47969-33.148287-71.984258-58.590814-117.250228-75.923145-7.024877-63.108196-75.561713-112.793255-158.811782-112.793255-83.244949 0-151.778713 49.684035-158.805637 112.793255-45.261875 17.331307-84.762347 42.774857-117.238966 75.923145-68.118067 69.513622-102.901499 167.799446-100.581374 284.275617-0.203753 11.008815-0.137201 21.341866 0.205801 31.440447-17.650759 17.766458-31.477307 44.597373-21.373607 82.244612 7.510199 27.988929 28.210088 48.948886 53.607564 58.126994a85.21388 85.21388 0 0 0 44.286112 12.696178c32.385493 141.59003 149.941863 237.71136 303.451966 237.711361 153.227511 0 270.813573-96.362967 303.01067-238.031837 0.990097 0.211944 2.024221 0.337882 3.076776 0.337882 20.223783 0 38.826755-7.062761 53.500056-18.824131 19.176348-10.880829 34.178316-29.094725 40.327771-52.014399 11.140896-41.499096-6.803718-69.863791-26.900539-87.418305zM375.297999 392.4276c2.440943 4.079159 60.944726 100.543491 171.167005 142.358968 30.410418 11.539188 61.564177 18.134033 91.701217 24.510791 60.434831 12.80471 117.53282 24.896796 156.433296 75.401987 0.405459 0.522182 0.855968 1.009551 1.321836 1.468251l-0.063481 2.551522c0 18.828227-1.422177 37.021646-4.160046 54.505512-50.008607 79.900939-132.982226 132.261411-235.772122 143.53746-7.659686-10.110868-23.264722-17.080455-41.390564-17.080455-25.703617 0-46.565281 13.912554-46.565281 31.034988 0 17.162366 20.861663 31.044203 46.565281 31.044203 23.041515 0 42.025373-11.21052 45.718528-25.876654 33.149311-3.809877 64.760747-11.728606 94.394035-23.697826 42.327419-17.093765 79.632681-41.997728 110.856065-74.017694 5.000656-5.119427 9.799606-10.419057 14.440878-15.857936-37.217208 113.351273-136.709169 186.219143-266.600285 186.23143-0.232422-0.012287-0.87235-0.012287-1.102724-0.012286-166.660886 0-283.061289-119.175132-283.061289-290.081047l-0.313309-16.264419c-0.205801-6.969587 0.873374-26.545251 2.035484-45.319212 90.855488-32.142832 128.581567-124.493193 130.23207-128.645048l14.163406-55.792535z m59.92596 258.971315c0 29.758203-24.12581 53.886061-53.881965 53.886061s-53.881965-24.126834-53.881966-53.886061c0-29.757179 24.12581-53.879917 53.881966-53.879917 29.757179 0 53.881965 24.12581 53.881965 53.879917z m250.910266 0c0 29.285168-23.737757 53.028045-53.021902 53.028045-29.279025 0-53.014734-23.744925-53.014734-53.028045s23.737757-53.019854 53.014734-53.019853c29.285168 0.002048 53.021902 23.739805 53.021902 53.019853z m0 0" fill="#bfbfbf" p-id="3078"></path></svg>