<?xml version="1.0" standalone="no"?><!DOCTYPE svg PUBLIC "-//W3C//DTD SVG 1.1//EN" "http://www.w3.org/Graphics/SVG/1.1/DTD/svg11.dtd"><svg t="1495822214833" class="icon" style="" viewBox="0 0 1024 1024" version="1.1" xmlns="http://www.w3.org/2000/svg" p-id="7886" xmlns:xlink="http://www.w3.org/1999/xlink" width="200" height="200"><defs><style type="text/css"></style></defs><path d="M299.047422 701.172477 846.653361 701.172477l0-30.54876L299.047422 670.623717 299.047422 701.172477 299.047422 701.172477zM299.047422 640.053468 846.653361 640.053468 846.653361 609.501638 299.047422 609.501638 299.047422 640.053468 299.047422 640.053468zM299.047422 792.847409 846.653361 792.847409l0-30.55183L299.047422 762.29558 299.047422 792.847409 299.047422 792.847409zM299.047422 548.381605 846.653361 548.381605l0-30.550807L299.047422 517.830799 299.047422 548.381605 299.047422 548.381605zM228.697167 456.709743l-41.831734 0c-5.246491 0-9.507538 4.269233-9.507538 9.549493l0 72.571852c0 5.27719 4.260024 9.553587 9.507538 9.553587l41.831734 0c5.246491 0 9.516748-4.276397 9.516748-9.553587l0-72.571852C238.212892 460.978976 233.943658 456.709743 228.697167 456.709743L228.697167 456.709743zM228.697167 762.29558l-41.831734 0c-5.246491 0-9.507538 4.269233-9.507538 9.55154l0 72.567759c0 5.279237 4.260024 9.553587 9.507538 9.553587l41.831734 0c5.246491 0 9.516748-4.27435 9.516748-9.553587l0-72.567759C238.212892 766.564813 233.943658 762.29558 228.697167 762.29558L228.697167 762.29558zM299.047422 487.257479 846.653361 487.257479l0-30.54876L299.047422 456.708719 299.047422 487.257479 299.047422 487.257479zM299.047422 853.969489 846.653361 853.969489l0-30.55797-547.605939 0.001023L299.047422 853.969489 299.047422 853.969489zM228.697167 609.503685l-41.831734 0c-5.246491 0-9.507538 4.267187-9.507538 9.549493l0 72.571852c0 5.273097 4.260024 9.549493 9.507538 9.549493l41.831734 0c5.246491 0 9.516748-4.278443 9.516748-9.549493l0-72.571852C238.212892 613.770871 233.943658 609.503685 228.697167 609.503685L228.697167 609.503685zM877.064998 59.449997 146.935002 59.449997c-50.404993 0-91.26254 41.031509-91.26254 91.670839l0 733.412762c0 50.617841 40.857547 91.670839 91.26254 91.670839l730.129996 0c50.395784 0 91.26254-41.052998 91.26254-91.670839L968.327538 151.120836C968.327538 100.480482 927.460782 59.449997 877.064998 59.449997L877.064998 59.449997zM911.284357 890.26309c0 15.818267-12.754488 28.647457-28.517497 28.647457L141.232117 918.910547c-15.751752 0-28.52159-12.834306-28.52159-28.647457L112.710526 145.395438c0-15.814174 12.769838-28.64541 28.52159-28.64541L882.765837 116.750027c15.766079 0 28.52159 12.83226 28.52159 28.64541l0 744.867652L911.284357 890.26309 911.284357 890.26309zM724.955648 273.366018l0-30.571273-91.27789 0 0 30.571273L724.955648 273.366018 724.955648 273.366018zM827.637262 181.692109 572.847322 181.692109l0 183.343725-30.416753 0L542.430568 181.692109 196.375018 181.692109c-10.502192 0-19.016099 8.543583-19.016099 19.09694l0 175.696558c0 10.55745 8.513908 19.102057 19.016099 19.102057l631.262244 0c10.490935 0 19.014052-8.544607 19.014052-19.102057L846.651314 200.789049C846.651314 190.235692 838.125127 181.692109 827.637262 181.692109L827.637262 181.692109zM359.889115 242.794745l-60.842717 0 0 122.241089-30.419823 0L268.626575 212.242915l91.26254 0L359.889115 242.794745 359.889115 242.794745zM511.998465 365.035834 390.322242 365.035834 390.322242 212.242915l30.416753 0 0 122.221646 60.826344 0L481.565339 212.242915l30.43415 0L511.998465 365.035834 511.998465 365.035834zM755.370355 303.914778 633.680828 303.914778l0 30.550807 121.689527 0 0 30.570249L633.680828 365.035834l0-30.570249-30.419823 0 0-91.670839 30.419823 0 0-30.55183 91.276866 0 0 30.55183 30.41266 0L755.370355 303.914778 755.370355 303.914778z" p-id="7887" fill="#bfbfbf"></path></svg>