<?xml version="1.0" standalone="no"?><!DOCTYPE svg PUBLIC "-//W3C//DTD SVG 1.1//EN" "http://www.w3.org/Graphics/SVG/1.1/DTD/svg11.dtd"><svg t="1495822178663" class="icon" style="" viewBox="0 0 1024 1024" version="1.1" xmlns="http://www.w3.org/2000/svg" p-id="7206" xmlns:xlink="http://www.w3.org/1999/xlink" width="200" height="200"><defs><style type="text/css"></style></defs><path d="M784.34 1011.66h-21.787L512.625 898.251 283.234 1011.66h-21.787L0 892.935V554.128l239.66-101.411V118.383L496.899 9.447h28.565l237.089 108.936v326.809h24.358L1024 554.128v338.988L784.34 1011.66z m-21.787-22.053V706.639l-87.149-38.28v147.216l-65.362-65.362h-43.574V618.08l-43.574-20.112v281.027l239.659 110.612zM348.596 314.469h-43.574V182.336l-43.574-20.11v282.966h24.36l215.299 99.849V270.894H496.9l-82.942-38.28V379.83l-65.362-65.361z m43.574 217.872l-43.574-21.787L87.149 619.49v108.936h21.787L152.511 772V641.277L392.17 532.341zM283.234 988.587l217.872-108.936V598.988L285.807 706.639h-2.573v281.948z m-21.21-303.735h18.639l217.872-108.936-78.754-35.592-226.034 113.015 68.277 31.513zM21.787 878.995l239.66 110.612V706.639h-4.207l-82.942-38.28v147.216l-65.362-65.362H65.362V618.08l-43.574-20.112v281.027z m0-310.751l47.694 27.742 247.481-103.117-57.311-26.452L21.787 568.244zM511.375 25.507L261.447 132.499v5.728l47.694 22.014L566.468 53.022l-55.093-27.515z m76.88 49.302L326.809 183.745v108.936h21.787l43.574 43.574V205.532L631.83 96.596l-43.575-21.787z m152.511 57.08L670.234 99.18 433.407 217.594l68.277 31.513h18.639l220.443-110.222v-6.996z m0 31.354L525.465 270.894h-2.571v275.094l95.334-40.814 122.538-61.268V163.243z m32.056 298.008L647.458 514.92l-121.207 60.603 44.337 20.463 257.327-107.219-55.093-27.516z m76.88 49.303L588.255 619.49v108.936h21.787L653.617 772V641.277l239.66-108.936-43.575-21.787z m152.511 57.082l-70.532-32.711-236.827 118.414 68.277 31.513h18.639l220.443-110.222v-6.994z m0 31.352L784.34 706.639v281.949l217.872-108.936V598.988z" p-id="7207"></path></svg>