<?xml version="1.0" standalone="no"?><!DOCTYPE svg PUBLIC "-//W3C//DTD SVG 1.1//EN" "http://www.w3.org/Graphics/SVG/1.1/DTD/svg11.dtd"><svg t="1495822009977" class="icon" style="" viewBox="0 0 1024 1024" version="1.1" xmlns="http://www.w3.org/2000/svg" p-id="4617" xmlns:xlink="http://www.w3.org/1999/xlink" width="200" height="200"><defs><style type="text/css"></style></defs><path d="M972.682 370.429c-25.582-25.582-59.76-39.704-96.188-39.704-36.43 0-70.607 14.122-96.189 39.704L387.364 763.472c-4.912 4.912-8.186 11.051-9.516 17.805l-35.713 178.665c-2.251 11.461 1.33 23.331 9.516 31.518a34.867 34.867 0 0 0 24.662 10.232c2.25 0 4.604-0.204 6.856-0.716l178.665-35.61c6.754-1.33 12.996-4.707 17.805-9.517l393.043-393.043c25.582-25.582 39.704-59.76 39.704-96.189s-14.122-70.606-39.704-96.188zM923.36 419.75c25.787 25.787 25.787 67.741 0 93.528l-8.8 8.8-93.528-93.528 8.8-8.8c25.787-25.787 67.741-25.787 93.528 0zM537.787 898.955l-116.962 23.433 23.331-117.064 327.451-327.45 93.528 93.528-327.348 327.553z m342.697-120.44c-19.237 0-34.894 15.655-34.894 34.893v118.496H730.266c-19.237 0-34.894 15.657-34.894 34.894 0 19.238 15.657 34.894 34.894 34.894h150.116c19.238 0 34.894-15.656 34.894-34.894v-153.39c0.102-19.238-15.554-34.894-34.792-34.894z m-671.376 153.39H81.505V92.094h763.983v111.743c0 19.238 15.656 34.894 34.894 34.894s34.894-15.656 34.894-34.894V57.202c0-19.238-15.656-34.894-34.894-34.894H46.611c-19.238 0-34.894 15.656-34.894 34.894v909.596c0 19.238 15.656 34.894 34.894 34.894h162.497c19.238 0 34.894-15.656 34.894-34.894 0-19.237-15.554-34.894-34.894-34.894z m265.235-440.013L721.16 245.076c13.61-13.61 13.61-35.712 0-49.322s-35.712-13.61-49.322 0L449.682 417.807l-91.789-91.789c-13.61-13.61-35.712-13.61-49.322 0L184.447 450.04c-13.61 13.61-13.61 35.713 0 49.322 6.856 6.856 15.758 10.233 24.661 10.233 8.903 0 17.907-3.377 24.661-10.233l99.361-99.36 91.789 91.788c13.712 13.712 35.814 13.712 49.424 0.102z" p-id="4618" fill="#bfbfbf"></path></svg>